<svg xmlns="http://www.w3.org/2000/svg" xmlns:xlink="http://www.w3.org/1999/xlink" width="1933" height="1773" viewBox="0 0 1933 1773">
  <defs>
    <clipPath id="clip-iPhone_X_XS_11_Pro_1">
      <rect width="1933" height="1773"/>
    </clipPath>
  </defs>
  <g id="iPhone_X_XS_11_Pro_1" data-name="iPhone X/XS/11 Pro – 1" clip-path="url(#clip-iPhone_X_XS_11_Pro_1)">
    <rect width="1933" height="1773" fill="#fff"/>
    <g id="Group_95" data-name="Group 95" transform="translate(-4248 -2318)">
      <g id="Group_94" data-name="Group 94">
        <path id="Path_1061" data-name="Path 1061" d="M4300.451,2318.819l99.356,109-5.133,57.816,1.58,37.549,15.8,34.71,20.212,48.395,14.961,61.361,21.967,130.137,69.766-10.231,70.9,8.92,72.736-35.56,65.9,18.87,119.712,7.407,21.015-66.338,24.021-75.374-8.556-93.146,10.023-106.6-44.966-126.92" fill="none" stroke="#3c3548" stroke-linecap="round" stroke-linejoin="round" stroke-width="0.5"/>
        <path id="Path_1062" data-name="Path 1062" d="M4248,2653.293l132.7,101.385,47.022,123.126,128.778-24.037,62.73-12.565,31.588,35.962,96.206,30.464,75.74,53.26-19.718,40.988,27.655,32.553,62.1,24.871,17.681,28.475" fill="none" stroke="#3c3548" stroke-linecap="round" stroke-linejoin="round" stroke-width="0.5"/>
        <path id="Path_1063" data-name="Path 1063" d="M4956.841,2318.819l-4.979,19.418,16.342,50.078,18.89,106.822-16.875,150.489,36.1,74.128-15.826,49.5,16.71,37.307-20.326,133.84-28.788,125.875,31.4,69.219-13.9,68.807,7.308,84.321-75.286,36.989-47.913-68.386-59.283,42.527,99.91,127.931,63.028,170.905,11.18,73.774,53.178,8.468,134.729-56.3,85.807-96.709,82.824-72.246,115.344-76.074,152.394,45.68L5700.787,3549.5l-16.109,77.085,1.264,22.456-90.054,433.588" fill="none" stroke="#3c3548" stroke-linecap="round" stroke-linejoin="round" stroke-width="0.5"/>
        <path id="Path_1064" data-name="Path 1064" d="M4248,3428.375l199.094-44.437,75.234-90.985,63.977-30.987,68.857-3.536,56.527-17.222,60.518-8.789-10.915,3.445,144.811-41.519,7.937-17.2-7.682-4.994,13.75-27.594-9.622-56.78" fill="none" stroke="#3c3548" stroke-linecap="round" stroke-linejoin="round" stroke-width="0.5"/>
        <path id="Path_1065" data-name="Path 1065" d="M5518.695,3428.375l-105.171-.129-81.308-112.98-32.738-117.024,81.781-88.3,68.614-2.411,75.191-8.021,118.41,75.155,26.6,140.03-151.383,113.676" fill="none" stroke="#3c3548" stroke-linecap="round" stroke-linejoin="round" stroke-width="0.5"/>
        <path id="Path_1066" data-name="Path 1066" d="M5497.73,2318.333l10.042,57.712-23.062,37.815L5451.7,2560.429l78.4,166.281,86.655,22.309,92.154-17.634,105.064-14.935,36.434-47.978,76.194-96.805,20.838-151.58,24.649-56.45-8.625-44.894" fill="none" stroke="#3c3548" stroke-linecap="round" stroke-linejoin="round" stroke-width="0.5"/>
        <path id="Path_1067" data-name="Path 1067" d="M5365.952,2318.743l13.64,122.908,34.972,139.509,39.607,114.369,100.957,92.215,75.739,9.314,54.579-14.586,146.58-2.5,85.226-78.126,72.266-115.082,17.585-157.445.858-110.575" fill="none" stroke="#3c3548" stroke-linecap="round" stroke-linejoin="round" stroke-width="0.5"/>
        <path id="Path_1068" data-name="Path 1068" d="M5267.956,2318.333l15.284,71.307,16.306,106.736,58.565,134.288,63.767,125.645,75.052,42.463,67.645,33.106,159.085,19.159L5864.3,2838.4l50.493-61.615,47.457-46.413,92.565-123.242,43.242-162.606-1.473-93.608-9.54-32.177" fill="none" stroke="#3c3548" stroke-linecap="round" stroke-linejoin="round" stroke-width="0.5"/>
        <path id="Path_1069" data-name="Path 1069" d="M5137.312,2318.333l-10.909,58.105,3.618,77.287,54.172,61.979,54.734,73.924,24.087,36.189,33.764,31.147,23.263,97.176,134.548,112,191.453,89.341,172.171,54.806L5921.3,2877.158,6081.616,2705.3l36.6-88.47,44.664-94.862,3.754-115.941-29.147-87.281" fill="none" stroke="#3c3548" stroke-linecap="round" stroke-linejoin="round" stroke-width="0.5"/>
      </g>
    </g>
  </g>
</svg>
